<?xml version="1.0" standalone="no"?> <!DOCTYPE svg PUBLIC "-//W3C//DTD SVG 20010904//EN" "http://www.w3.org/TR/2001/REC-SVG-20010904/DTD/svg10.dtd">
<svg version="1.0" xmlns="http://www.w3.org/2000/svg" width="1582.515639pt" height="625.603445pt" viewBox="0 0 1582.515639 625.603445" preserveAspectRatio="xMidYMid meet">
<metadata>
Created by potrace 1.12, written by Peter Selinger 2001-2015
</metadata>

<!-- Teal layer -->
<g transform="translate(-205.484361,879.603445) scale(0.100000,-0.100000)" fill="#28B0A7" stroke="none">
<path d="M3129 8790 c-130 -20 -246 -80 -338 -171 -70 -70 -114 -144 -155 -256 l-31 -88 -3 -1042 c-1 -616 1 -1043 6 -1043 5 0 56 38 113 85 122 101 257 194 428 295 l123 74 -3 672 c-2 370 -1 675 2 678 5 5 167 -156 741 -738 179 -181 241 -237 255 -233 57 17 563 148 646 168 53 13 96 26 95 31 -5 13 -655 685 -1023 1057 -214 216 -388 383 -429 412 -116 82 -286 121 -427 99z"/>
<path d="M6962 6181 c-219 -20 -285 -29 -293 -41 -6 -10 -7 -143 -3 -372 4 -221 3 -358 -2 -358 -6 0 -142 137 -304 305 l-295 306 -55 -6 c-58 -7 -568 -112 -682 -140 -38 -10 -68 -22 -68 -28 0 -5 53 -66 118 -135 196 -210 870 -894 925 -940 116 -96 242 -142 392 -142 301 0 543 182 614 462 22 86 24 135 22 696 l-1 422 -42 -1 c-24 -1 -170 -13 -326 -28z"/>
<path d="M15915 3849 c-36 -32 -46 -71 -25 -108 5 -10 67 -68 137 -129 70 -61 166 -143 213 -184 47 -40 146 -125 220 -187 74 -63 159 -137 188 -165 l52 -50 0 -209 c0 -124 4 -216 10 -228 36 -66 195 -64 231 3 8 15 11 83 10 214 -1 105 1 202 4 217 5 17 48 58 133 125 70 54 193 155 273 223 430 365 438 374 423 432 -3 15 -20 38 -36 52 -25 21 -40 25 -93 25 -58 0 -68 -3 -112 -37 -55 -42 -359 -295 -508 -423 -55 -47 -124 -105 -152 -129 l-53 -43 -242 203 c-134 111 -292 246 -353 299 -131 116 -156 130 -229 130 -48 0 -60 -4 -91 -31z"/>
</g>

<!-- Blue layer -->
<g transform="translate(-205.484361,879.603445) scale(0.100000,-0.100000)" fill="#2F62F0" stroke="none">
<path d="M6885 7100 c-914 -36 -1991 -234 -2830 -520 -160 -55 -453 -172 -599 -239 -356 -165 -794 -482 -981 -711 -71 -86 -144 -208 -185 -307 -39 -93 -81 -233 -74 -245 3 -5 34 17 68 49 124 116 433 316 681 440 346 174 871 381 1185 468 47 12 126 35 175 49 471 139 1229 299 1775 375 478 67 618 83 1040 120 974 86 2114 59 3111 -74 212 -29 212 -29 204 -15 -19 31 -373 179 -621 259 -552 179 -1191 294 -1869 335 -306 19 -810 26 -1080 16z"/>
<path d="M10472 3870 c-49 -12 -89 -55 -102 -111 -16 -65 -8 -1136 8 -1166 19 -36 58 -53 118 -53 50 0 59 3 89 33 l33 33 -5 482 c-4 296 -3 482 3 482 5 0 61 -44 124 -97 387 -326 1133 -909 1180 -923 88 -25 190 2 234 63 21 28 21 41 24 595 2 411 -1 574 -9 595 -20 48 -64 77 -117 77 -56 0 -88 -15 -116 -53 -21 -28 -21 -34 -17 -508 1 -263 -1 -479 -6 -479 -4 0 -35 23 -68 51 -57 48 -154 126 -580 471 -104 84 -232 188 -283 230 -126 106 -327 257 -354 267 -38 14 -121 20 -156 11z"/>
<path d="M2895 3842 c-49 -24 -56 -31 -146 -167 -39 -60 -113 -168 -164 -240 -50 -71 -158 -229 -240 -350 -82 -121 -177 -259 -212 -307 -79 -108 -90 -136 -68 -177 26 -52 55 -64 140 -59 88 4 80 -4 205 182 l75 111 499 3 c366 1 502 -1 513 -9 7 -7 50 -64 95 -128 112 -158 115 -161 200 -161 82 0 120 17 138 60 17 41 5 67 -97 202 -67 87 -490 716 -635 944 -54 84 -82 100 -188 109 -62 5 -82 2 -115 -13z m286 -508 c93 -139 169 -257 169 -261 0 -8 -708 -8 -716 0 -3 3 17 35 45 72 27 36 109 154 182 260 73 107 136 192 141 189 5 -3 85 -120 179 -260z"/>
<path d="M5415 3850 l-290 -5 -62 -29 c-76 -35 -154 -113 -189 -190 l-25 -55 3 -353 c3 -343 4 -355 26 -411 35 -85 116 -169 211 -215 l76 -37 653 -3 c732 -3 700 -6 748 69 24 38 24 40 24 321 0 263 -1 285 -20 315 -41 67 -26 65 -471 61 l-401 -3 -29 -33 c-42 -46 -41 -108 2 -157 l31 -35 321 -2 322 -3 3 -155 2 -155 -537 2 c-296 1 -551 4 -569 7 -42 8 -108 67 -133 119 -20 40 -21 60 -21 300 0 280 4 303 58 360 60 63 25 60 728 61 627 1 642 1 664 21 59 52 58 139 -1 189 l-31 26 -401 -2 c-221 -1 -532 -5 -692 -8z"/>
<path d="M7805 3846 c-39 -18 -79 -63 -94 -105 -15 -45 -15 -990 0 -1044 13 -49 63 -105 114 -128 37 -17 84 -19 713 -19 592 0 677 2 703 16 32 16 59 66 59 109 0 35 -25 82 -52 96 -15 8 -195 11 -648 10 -506 -2 -630 1 -637 11 -9 14 -6 288 3 298 3 3 245 5 538 5 579 0 551 -3 582 56 27 53 9 135 -35 159 -13 6 -209 10 -561 10 l-541 0 3 147 3 147 25 7 c14 4 296 7 628 8 l604 1 28 29 c53 52 52 131 -1 175 l-31 26 -686 0 c-552 -1 -693 -3 -717 -14z"/>
<path d="M13597 3850 c-116 -20 -229 -107 -284 -217 l-28 -58 -3 -337 c-3 -291 -1 -346 13 -395 33 -115 106 -198 225 -256 l65 -32 653 -3 654 -3 39 39 c44 44 50 81 24 136 -29 60 -3 58 -659 57 -376 -1 -614 2 -635 9 -42 12 -96 62 -122 112 -17 34 -19 61 -19 311 l0 275 33 48 c61 91 22 86 717 85 670 -2 653 -3 685 59 8 16 15 50 15 75 0 38 -5 52 -29 76 l-29 29 -634 -1 c-348 -1 -655 -5 -681 -9z"/>
</g>

<!-- Deep navy layer (text/accents) -->
<g transform="translate(-205.484361,879.603445) scale(0.100000,-0.100000)" fill="#0E2433" stroke="none">
<path d="M6878 8751 c-134 -6 -137 -7 -168 -36 -17 -16 -35 -45 -41 -65 -6 -22 -9 -246 -7 -630 l3 -595 25 2 c14 1 165 4 335 7 l310 6 -4 607 c-3 577 -4 610 -22 639 -35 57 -62 68 -184 70 -60 0 -172 -1 -247 -5z"/>
<path d="M8195 8731 c-17 -10 -43 -33 -58 -50 l-27 -33 2 -626 3 -627 95 -7 c118 -9 469 -56 512 -69 18 -5 39 -9 45 -9 10 0 13 79 13 369 l0 369 1243 -3 1242 -2 98 -27 c123 -33 208 -71 313 -141 212 -141 375 -372 440 -620 25 -96 26 -113 31 -466 8 -502 -9 -643 -97 -827 -160 -335 -468 -568 -820 -621 -52 -8 -446 -12 -1263 -14 l-1187 -2 0 484 0 484 -332 -8 c-183 -4 -334 -8 -336 -10 -2 -1 -3 -346 -2 -765 0 -629 3 -767 14 -788 19 -36 65 -79 96 -89 14 -4 711 -6 1550 -3 1521 6 1525 6 1620 28 398 91 736 286 988 572 227 257 370 564 429 918 21 126 30 843 14 1032 -31 353 -178 685 -424 961 -269 303 -578 482 -997 581 l-95 22 -1540 3 c-1489 3 -1541 3 -1570 -16z"/>
<path d="M14275 8735 c-357 -57 -647 -236 -832 -512 -157 -236 -210 -429 -200 -729 6 -180 29 -291 91 -436 153 -352 441 -595 823 -691 l88 -22 1250 -1 c938 -1 1262 -4 1300 -13 142 -35 298 -158 362 -288 94 -189 53 -415 -104 -569 -70 -70 -175 -128 -258 -143 -29 -5 -755 -10 -1714 -10 -1570 -1 -1666 -2 -1700 -18 -20 -10 -46 -33 -58 -52 -22 -33 -23 -43 -25 -260 -1 -124 -1 -237 0 -251 2 -31 30 -69 72 -98 l34 -22 1710 3 1711 3 98 22 c315 72 579 251 752 511 141 213 205 425 205 681 0 201 -35 343 -133 534 -177 348 -525 598 -907 652 -76 11 -341 14 -1299 14 -1173 0 -1206 1 -1271 20 -117 35 -257 147 -308 246 -52 102 -67 251 -37 363 49 184 200 326 393 366 56 12 324 15 1685 15 1795 0 1652 -6 1702 67 l25 38 0 240 c0 233 -1 241 -23 278 -13 21 -36 47 -53 57 -28 19 -62 20 -1664 19 -1273 -1 -1653 -4 -1715 -14z"/>
</g>
</svg>